<svg id="icon_browser" viewBox="0 0 1024 1024" xmlns="http://www.w3.org/2000/svg" xmlns:html="http://www.w3.org/1999/xhtml" xmlns:xlink="http://www.w3.org/1999/xlink" version="1.1"><path d="M0 0m170.666667 0l682.666666 0q170.666667 0 170.666667 170.666667l0 682.666666q0 170.666667-170.666667 170.666667l-682.666666 0q-170.666667 0-170.666667-170.666667l0-682.666666q0-170.666667 170.666667-170.666667Z" fill="#9E4AF7"></path><path d="M837.546667 403.754667c4.522667 13.909333 8.106667 29.312 10.752 44.586666v-0.042666l2.218666 14.421333c1.834667 14.549333 2.816 29.44 2.816 44.458667a345.813333 345.813333 0 0 1-267.52 337.28 342.912 342.912 0 0 1-45.781333 7.338666 342.613333 342.613333 0 0 1-69.632-0.426666v-0.426667l157.269333-274.474667a134.144 134.144 0 0 0 18.944-69.12c0-41.514667-18.944-77.312-48.213333-103.594666zM237.056 303.872l0.170667 0.341333 155.434666 269.141334c23.722667 40.704 66.090667 67.84 116.906667 67.84 15.274667 0 30.506667-3.413333 44.074667-8.490667l-117.546667 203.904a337.28 337.28 0 0 1-163.584-88.746667A338.304 338.304 0 0 1 170.666667 505.557333a338.346667 338.346667 0 0 1 66.389333-201.642666z m266.624 99.882667a100.181333 100.181333 0 0 1 99.882667 99.925333 100.181333 100.181333 0 0 1-99.882667 99.882667 100.181333 100.181333 0 0 1-99.925333-99.882667 100.224 100.224 0 0 1 99.925333-99.925333zM506.026667 170.666667c112.213333 0 211.754667 54.186667 274.218666 137.941333l0.554667 0.426667a378.453333 378.453333 0 0 1 39.253333 67.584h-314.026666a136.533333 136.533333 0 0 0-133.589334 110.421333l-118.314666-204.8a337.621333 337.621333 0 0 1 136.96-91.690667A340.48 340.48 0 0 1 506.026667 170.666667z m274.346666 138.410666c6.186667 8.405333 12.074667 17.194667 17.493334 26.197334l7.936 13.610666-7.808-13.568a351.146667 351.146667 0 0 0-8.448-13.312l-9.002667-12.8c-0.085333 0-0.128-0.085333-0.213333-0.128z" fill="#FFFFFF"></path></svg>