<svg id="icon_browser" viewBox="0 0 1024 1024" xmlns="http://www.w3.org/2000/svg" xmlns:html="http://www.w3.org/1999/xhtml" xmlns:xlink="http://www.w3.org/1999/xlink" version="1.1"><path d="M0 0m170.666667 0l682.666666 0q170.666667 0 170.666667 170.666667l0 682.666666q0 170.666667-170.666667 170.666667l-682.666666 0q-170.666667 0-170.666667-170.666667l0-682.666666q0-170.666667 170.666667-170.666667Z" fill="#2CDE98"></path><path d="M682.666667 274.304a85.333333 85.333333 0 0 1 85.333333 85.333333V554.666667a85.333333 85.333333 0 0 1-85.333333 85.333333h-134.101334v73.130667h82.304a27.434667 27.434667 0 0 1 0 54.869333H393.130667a27.434667 27.434667 0 1 1 0-54.869333h82.261333V640H341.333333a85.333333 85.333333 0 0 1-85.333333-85.333333V359.637333a85.333333 85.333333 0 0 1 85.333333-85.333333h341.333334z" fill="#FFFFFF"></path></svg>