<svg aria-hidden="true" viewBox="0 0 72 72" version="1.1" width="32" data-view-component="true" xmlns="http://www.w3.org/2000/svg" xmlns:html="http://www.w3.org/1999/xhtml" xmlns:xlink="http://www.w3.org/1999/xlink"><g><circle fill="#55B9EC" cx="36" cy="36" r="36" /><path d="M47.3473397,48.2858535 C47.3473397,48.2858535 50.5293531,49.351603 50.2644855,52.1156411 C50.2644855,52.1156411 50.3682793,55.2009893 43.4593447,54.9894058 C43.4593447,54.9894058 38.6004236,54.618479 37.1420615,52.5966318 L35.8573787,52.5966318 C34.4007407,54.6205027 29.5418579,54.9894058 29.5418579,54.9894058 C22.6287471,55.2030129 22.738901,52.1156411 22.738901,52.1156411 C22.4697422,49.3516404 25.6539012,48.2858535 25.6539012,48.2858535 C23.8732381,45.9429586 22.9000515,43.3365025 22.9000515,43.3365025 C18.5797547,50.199698 19.0120181,42.3783811 19.0120181,42.3783811 C19.8220235,37.750415 23.2246514,34.7191057 23.2246514,34.7191057 C22.7389394,30.5160303 24.5198707,29.7694923 24.5198707,29.7694923 C24.8907544,16.7664798 36.2622089,16.9947771 36.499835,17.0009604 C36.7392619,16.994852 48.1064635,16.7665173 48.4815235,29.7695298 C48.4815235,29.7695298 50.2646004,30.5140067 49.777011,34.7191432 C49.777011,34.7191432 53.1774549,37.75049 53.9872304,42.3784185 C53.9893377,42.3783811 54.4196088,50.199698 50.1013426,43.3365025 C50.101266,43.3365025 49.13034,45.9428836 47.3473397,48.2858535 Z" fill="#FFFFFF" fill-rule="nonzero" /></g></svg>