<svg id="icon_browser" viewBox="0 0 1024 1024" xmlns="http://www.w3.org/2000/svg" xmlns:html="http://www.w3.org/1999/xhtml" xmlns:xlink="http://www.w3.org/1999/xlink" version="1.1"><path d="M0 0m170.666667 0l682.666666 0q170.666667 0 170.666667 170.666667l0 682.666666q0 170.666667-170.666667 170.666667l-682.666666 0q-170.666667 0-170.666667-170.666667l0-682.666666q0-170.666667 170.666667-170.666667Z" fill="#46A3F8"></path><path d="M512 170.666667c188.16 0 341.333333 153.130667 341.333333 341.333333 0 188.16-153.173333 341.333333-341.333333 341.333333-188.202667 0-341.333333-153.173333-341.333333-341.333333 0-188.202667 153.130667-341.333333 341.333333-341.333333z m-78.08 46.421333a301.909333 301.909333 0 0 0-47.36 16.768 587.093333 587.093333 0 0 1 75.392 51.413333 55.893333 55.893333 0 0 0-7.125333 27.008c0 2.261333 0.426667 4.437333 0.682666 6.656a600.32 600.32 0 0 0-107.605333 96 56.064 56.064 0 0 0-11.946667-1.365333c-8.832 0-17.066667 2.218667-24.490666 5.802667a537.173333 537.173333 0 0 1-56.96-70.954667 303.061333 303.061333 0 0 0-21.205334 39.338667c13.226667 18.346667 29.610667 38.954667 50.474667 60.8-2.688 6.613333-4.266667 13.824-4.266667 21.418666 0 10.154667 2.901333 19.498667 7.552 27.733334a617.258667 617.258667 0 0 0-58.794666 126.677333c7.168 18.048 16 35.242667 26.368 51.413333 9.472-37.632 27.989333-92.970667 63.573333-152.490666 5.674667 1.877333 11.52 3.157333 17.749333 3.157333 10.453333 0 20.138667-3.072 28.501334-8.021333 64.128 45.952 148.48 85.418667 255.829333 99.84 0.426667 1.706667 0.981333 3.285333 1.536 4.906666-58.026667 36.693333-145.066667 99.370667-208.725333 177.493334 13.696 4.693333 27.861333 8.533333 42.453333 11.264 60.330667-68.864 140.032-124.842667 192.128-157.568 6.314667 3.541333 13.354667 5.845333 20.906667 6.741333 3.797333 34.56 4.266667 71.893333 2.133333 111.274667 14.037333-8.533333 27.306667-18.090667 39.722667-28.757334a701.269333 701.269333 0 0 0-3.584-91.648 56.746667 56.746667 0 0 0 21.418666-28.501333 801.877333 801.877333 0 0 0 69.76-5.546667c4.138667-11.178667 7.68-22.613333 10.496-34.389333-26.538667 3.669333-60.885333 7.253333-81.450666 7.850667-7.168-16.981333-22.357333-37.674667-40.874667-41.386667a576.512 576.512 0 0 0-121.429333-220.8 55.893333 55.893333 0 0 0 2.901333-16.938667c0-3.925333-0.384-7.68-1.152-11.392 34.56-16.469333 72.533333-31.061333 114.645333-42.965333a303.146667 303.146667 0 0 0-47.786666-26.026667 753.493333 753.493333 0 0 0-88.533334 35.2 56.106667 56.106667 0 0 0-33.578666-11.306666c-6.784 0-13.184 1.408-19.2 3.584a640.085333 640.085333 0 0 0-58.154667-42.282667z m40.490667 137.6c9.898667 8.576 22.656 13.994667 36.821333 13.994667 10.496 0 20.224-3.029333 28.629333-8.106667a538.325333 538.325333 0 0 1 107.52 195.882667c-9.045333 5.12-16.469333 12.629333-21.504 21.76-99.072-13.397333-176.938667-49.28-236.373333-91.392a56.32 56.32 0 0 0 2.858667-16.853334c0-12.245333-4.010667-23.552-10.666667-32.768a562.773333 562.773333 0 0 1 92.714667-82.517333z" fill="#FFFFFF"></path></svg>