<svg xmlns="http://www.w3.org/2000/svg" xmlns:xlink="http://www.w3.org/1999/xlink" fill="none" version="1.1" width="37.5" height="29.01171875" viewBox="0 0 37.5 29.01171875"><g><g><path d="M14.0624711796875,17.989990234375C13.5720951796875,17.989990234375,13.1756591796875,18.386211234375,13.1756591796875,18.876273234375C13.1756591796875,19.367430234375,13.5720951796875,19.763650234375,14.0624711796875,19.763650234375C14.5528491796875,19.763650234375,14.9493191796875,19.367430234375,14.9493191796875,18.876273234375C14.9493191796875,18.386211234375,14.5528491796875,17.989990234375,14.0624711796875,17.989990234375Z" fill-rule="evenodd" fill="#FFFFFF" fill-opacity="1"/></g><g><path d="M22.423952375,20.650390625C21.933578375,20.650390625,21.537109375,21.046608625,21.537109375,21.536609625C21.537109375,22.027860625,21.933578375,22.424110625,22.423952375,22.424110625C22.914329375,22.424110625,23.310769375,22.027860625,23.310769375,21.536609625C23.310769375,21.046608625,22.914329375,20.650390625,22.423952375,20.650390625Z" fill-rule="evenodd" fill="#FFFFFF" fill-opacity="1"/></g><g><path d="M35.55,22.89C35.2541,23.0381,34.8291,23.0459,34.4366,22.9103C34.1716,22.8169,33.8856,22.7288,33.6009,22.6409C33.0725,22.4797,32.1894,22.2106,32.0212,22.0069C31.7453,21.6388,31.2212,21.5653,30.8531,21.8434C30.485,22.1203,30.4116,22.6422,30.6897,23.0103C30.7819,23.135,30.9066,23.2372,31.0322,23.3363C29.7575,25.1003,24.1605,28.6109,16.2453,26.8813C12.6787,26.1016,10.278,24.6778,9.30128,22.7656C8.59706,21.3841,8.75728,19.9614,9.09434,19.1883C10.0633,17.176,17.0574,12.542,21.5229,9.91798C21.9189,9.68329,22.0513,9.17273,21.8177,8.7756C21.5841,8.3796,21.0512,8.22054,20.6763,8.47973C20.3158,8.69107,19.091,9.41854,17.528,10.4085C16.9996,10.0537,16.0862,9.61541,14.6222,9.47195C12.3005,9.2417,6.93503,8.2172,5.20181,7.48416C3.96031,6.95913,1.1424,5.56873,1.7665,4.00363C1.91112,3.63879,2.59084,3.04813,4.06375,2.48529C5.19847,2.0526,6.32762,1.81345,7.1809,1.71779C7.06631,1.77338,6.95506,1.82679,6.8505,1.87795C5.84706,2.36516,4.75237,2.9102,4.01703,3.55426C3.96362,3.51979,3.908,3.48529,3.87019,3.44748C3.55312,3.11601,3.03028,3.09151,2.69209,3.42079C2.35834,3.73891,2.34609,4.26726,2.66537,4.59985C2.9624,4.91132,3.40184,5.14604,3.9614,5.3251C3.98256,5.33179,4.00147,5.34179,4.02259,5.34626C5.96719,5.9447,9.42475,5.87016,14.2996,5.6766C16.4011,5.59429,18.3857,5.51645,20.0411,5.5487C25.5287,5.6577,29.6528,7.84013,32.6497,12.2217C34.4909,14.9135,33.8269,17.5654,32.7734,19.8701C32.6475,19.7734,32.5131,19.6477,32.4119,19.5231C32.1237,19.1638,31.5906,19.1138,31.2403,19.3907C30.88,19.6788,30.8197,20.2027,31.1069,20.5631C31.2759,20.7767,32.1459,21.7766,33.2237,21.6909C33.2437,21.6922,33.2616,21.69,33.2816,21.6888C33.3141,21.6844,33.3472,21.69,33.3819,21.6844C34.1181,21.5497,34.5809,21.5853,35.0137,21.8569C35.5869,22.2184,35.8694,22.4341,35.8125,22.6144C35.7791,22.7278,35.6934,22.8091,35.55,22.89ZM12.7967,13.5976C12.6309,13.7189,12.4685,13.839,12.3049,13.9591C12.1292,13.77,11.989,13.5899,11.9245,13.4586C12.118,13.4007,12.4407,13.4697,12.7967,13.5976ZM35.8169,20.3929C35.4044,20.1315,34.9716,20.0181,34.5509,19.9714C35.5387,17.5631,36.1675,14.4108,34.0272,11.2795C30.7519,6.48863,26.0562,3.9992,20.0733,3.88016C18.369,3.84679,16.3599,3.92579,14.234,4.01032C11.7654,4.1082,8.48028,4.23613,6.24753,4.05148C6.69253,3.8101,7.16643,3.57873,7.57694,3.37963C9.14775,2.61545,10.3848,2.02032,9.97543,0.964727C9.76072,0.348477,9.12106,0.0247896,8.06978,0.00141501C5.85706,-0.0486171,1.07565,1.23057,0.215716,3.38741C-0.26819,4.6021,-0.348315,6.94691,4.55212,9.01923C6.56793,9.87351,12.2616,10.9146,14.4587,11.1327C15.0794,11.1927,15.5545,11.3184,15.9149,11.4519C15.411,11.7834,14.8937,12.1315,14.3741,12.4875C13.4719,11.9736,11.9968,11.3674,10.8954,12.1182C10.4694,12.4063,10.2268,12.8312,10.2157,13.3151C10.2002,13.9169,10.565,14.5053,10.9755,14.9792C9.35356,16.2728,8.04197,17.5264,7.57694,18.4931C7.05853,19.681,6.84715,21.6253,7.815,23.5219C9.04319,25.9291,11.7587,27.6075,15.8882,28.5109C21.2848,29.6888,25.9459,28.6275,29.0297,27.0047C30.7462,26.1016,31.9644,25.0238,32.5562,24.0616C32.74,24.1194,32.9234,24.1781,33.1125,24.2372C33.3762,24.3172,33.64,24.3975,33.8869,24.4853C34.7034,24.7678,35.6069,24.73,36.3022,24.3797C36.3144,24.3741,36.3275,24.3663,36.3409,24.3597C36.865,24.0838,37.2422,23.6409,37.4078,23.1072C37.8528,21.6678,36.5825,20.8723,35.8169,20.3929Z" fill-rule="evenodd" fill="#FFFFFF" fill-opacity="1"/></g></g></svg>