<svg xmlns="http://www.w3.org/2000/svg" xmlns:xlink="http://www.w3.org/1999/xlink" fill="none" version="1.1" width="38" height="38" viewBox="0 0 38 38"><g><path d="M19,0C29.4934,0,38,8.50659,38,19C38,29.4934,29.4934,38,19,38C8.50659,38,0,29.4934,0,19C0,8.50659,8.50659,0,19,0ZM28.6179,8.44444C28.6177,8.44444,28.6175,8.44444,28.6173,8.44502L15.4814,8.44502C11.595,8.44502,8.44444,11.5956,8.44444,15.482L8.44444,28.6173C8.44444,29.1355,8.86452,29.5556,9.38271,29.5556L23.2224,29.5556C26.7201,29.5556,29.5556,26.7201,29.5556,23.2224L29.5556,17.8275C29.5556,17.3093,29.1355,16.8892,28.6173,16.8892L17.8272,16.8892C17.3091,16.8895,16.8891,17.3094,16.8887,17.8275L16.8881,20.1731C16.8877,20.6654,17.2667,21.0692,17.7489,21.1085L17.8261,21.1113L24.3951,21.1113C24.8874,21.1113,25.2911,21.4904,25.3303,21.9726L25.3334,22.0495L25.3334,22.5187C25.3334,24.0732,24.0731,25.3334,22.5186,25.3334L13.6043,25.3334C13.0862,25.3334,12.6662,24.9134,12.6662,24.3953L12.6659,15.4819C12.6658,13.9662,13.8638,12.7303,15.3645,12.6694L15.4806,12.6671L28.6147,12.6671C29.1326,12.6665,29.5526,12.2468,29.5535,11.7289L29.555,9.38329C29.5559,8.86511,29.1361,8.44477,28.6179,8.44444Z" fill-rule="evenodd" fill="#FFFFFF" fill-opacity="1"/></g></svg>