<svg xmlns="http://www.w3.org/2000/svg" xmlns:xlink="http://www.w3.org/1999/xlink" fill="none" version="1.1" width="38.26666259765625" height="37.33332824707031" viewBox="0 0 38.26666259765625 37.33332824707031"><g><path d="M19.1333,0C8.56216,0,0,8.56462,0,19.1388C0,27.6077,5.47692,34.7609,13.0824,37.2968C14.0391,37.4642,14.3978,36.8901,14.3978,36.3877C14.3978,35.9331,14.3739,34.4259,14.3739,32.8231C9.56666,33.7082,8.323,31.6508,7.94033,30.5743C7.72508,30.024,6.79233,28.3254,5.97917,27.8709C5.3095,27.512,4.35283,26.6269,5.95525,26.603C7.462,26.579,8.53825,27.9905,8.897,28.5647C10.619,31.4594,13.3694,30.646,14.4696,30.1436C14.637,28.8996,15.1392,28.0623,15.6893,27.5838C11.4322,27.1053,6.98366,25.4546,6.98366,18.134C6.98366,16.0527,7.72508,14.3302,8.94483,12.9905C8.7535,12.512,8.08383,10.5503,9.13616,7.91869Q10.7386,7.41629,14.3978,9.88041C15.9285,9.44979,17.5548,9.23448,19.1812,9.23448C20.8075,9.23448,22.4338,9.44979,23.9645,9.88041Q27.6237,7.39237,29.2262,7.91869C30.2785,10.5503,29.6088,12.512,29.4175,12.9905C30.6372,14.3302,31.3787,16.0288,31.3787,18.134C31.3787,25.4785,26.9062,27.1053,22.6491,27.5838C23.3427,28.1819,23.9406,29.3302,23.9406,31.1245C23.9406,33.6843,23.9167,35.7417,23.9167,36.3877C23.9167,36.8901,24.2754,37.4882,25.2321,37.2968C33.0204,34.6667,38.2646,27.3613,38.2667,19.1388C38.2667,8.56462,29.7045,0,19.1333,0Z" fill-rule="evenodd" fill="#FFFFFF" fill-opacity="1"/></g></svg>