<svg xmlns="http://www.w3.org/2000/svg" xmlns:xlink="http://www.w3.org/1999/xlink" fill="none" version="1.1" width="29.43194580078125" height="35" viewBox="0 0 29.43194580078125 35"><g><g><path d="M4.2445341962127685,33.312500528564456C3.6121231962127687,33.77908052856445,3.6912056962127684,34.25482052856445,3.8050384962127684,34.446740528564455C4.305117196212769,35.29081052856445,12.384801196212768,34.98573052856445,14.717281196212769,34.723070528564456C17.049881196212766,34.98573052856445,25.12948119621277,35.29081052856445,25.62948119621277,34.446740528564455C25.74358119621277,34.25482052856445,25.822381196212767,33.77908052856445,25.19048119621277,33.312500528564456C24.451681196212768,32.76692152856445,23.281081196212767,32.32717352856445,22.366481196212767,32.05376052856445C20.564481196212768,33.57766052856445,17.766281196212766,34.598070528564456,14.717281196212769,34.598070528564456C11.668721196212768,34.598070528564456,8.870241196212769,33.57766052856445,7.068591196212768,32.05376052856445C6.153521196212768,32.32717352856445,4.983031196212768,32.76692152856445,4.2445341962127685,33.312500528564456Z" fill="#FFFFFF" fill-opacity="1"/></g><g><path d="M14.7345,16.326C19.7692,16.2919,23.804,15.3173,25.1713,14.9437Q25.4972,14.8545,25.6714,14.6946C25.6726,14.6486,25.692,13.8749,25.692,13.476C25.692,6.75428,22.5192,0.000241595,14.716,0C6.91293,0.000241595,3.73987,6.75453,3.73987,13.4757C3.73987,13.8751,3.75929,14.6486,3.76079,14.6944Q3.90262,14.844,4.16212,14.9165C5.42452,15.2677,9.53532,16.2908,14.6974,16.326L14.7345,16.326ZM28.4156,21.9254C28.1035,20.9211,27.6776,19.7499,27.2461,18.6252Q26.998,18.5945,26.8723,18.6308C23.0015,19.7552,18.3097,20.4721,14.7345,20.4287L14.6974,20.4287C11.1421,20.4713,6.48218,19.763,2.62436,18.6494Q2.47696,18.6069,2.18604,18.6252C1.75453,19.7499,1.32862,20.9213,1.01655,21.9254C-0.471842,26.7149,0.0105038,28.6968,0.37755,28.741Q1.1654,28.8363,3.44387,25.136C3.44387,28.8962,6.83876,34.6697,14.6129,34.7228L14.8192,34.7228C22.5931,34.6697,25.988,28.8962,25.988,25.136Q28.2667,28.8363,29.0546,28.7413C29.4214,28.6968,29.9037,26.7146,28.4156,21.9254Z" fill="#FFFFFF" fill-opacity="1"/></g><g><path d="M11.939565267333984,9.930118845672608C10.880993267333984,9.978038845672607,9.976584267333985,8.772298845672609,9.919667857333984,7.239148845672608C9.862335067333984,5.705538845672607,10.673245267333984,4.4234271456726075,11.731815267333985,4.3755022556726075C12.789225267333984,4.328069245672608,13.693305267333985,5.5333288456726075,13.750715267333984,7.066978845672607C13.808635267333985,8.600798845672607,12.997395267333985,9.882958845672608,11.939565267333984,9.930118845672608ZM19.512335267333984,7.239148845672608C19.455665267333984,8.772048845672607,18.551345267333986,9.978038845672607,17.492765267333986,9.930118845672608C16.434615267333985,9.882708845672607,15.623705267333985,8.600798845672607,15.681615267333985,7.067228845672608C15.738955267333985,5.533568845672607,16.642855267333985,4.328319645672607,17.700435267333983,4.3755022556726075C18.759005267333983,4.4234271456726075,19.570005267333983,5.705538845672607,19.512335267333984,7.239148845672608Z" fill="#FFFFFF" fill-opacity="1"/></g><g><path d="M21.393309460449217,12.095067430725098C21.11060946044922,11.468737430725097,18.26160946044922,10.770577430725098,14.734869460449218,10.770577430725098L14.696869460449218,10.770577430725098C11.16989946044922,10.770577430725098,8.321090460449218,11.468737430725097,8.038176160449218,12.095317430725098C8.024843150449218,12.123147430725098,8.01775979744922,12.153647430725098,8.017509460449219,12.184567430725098C8.018010135449218,12.227817430725098,8.031592760449218,12.269817430725098,8.056426160449218,12.305227430725097C8.294841460449218,12.652307430725097,11.458149460449219,14.369547430725097,14.696869460449218,14.369547430725097L14.734869460449218,14.369547430725097C17.973339460449218,14.369547430725097,21.13660946044922,12.652807430725098,21.375109460449217,12.305227430725097C21.40010946044922,12.269727430725098,21.41360946044922,12.227477430725099,21.41400946044922,12.184067430725097C21.41370946044922,12.153317430725098,21.406609460449218,12.122987430725097,21.393309460449217,12.095067430725098Z" fill="#FFFFFF" fill-opacity="1"/></g><g><path d="M13.240779220581054,7.26178500012207C13.289199220581054,7.86744200012207,12.956949220581055,8.40552200012207,12.499873220581055,8.464112000122071C12.041876220581054,8.52302200012207,11.631963620581054,8.079782000122071,11.583380660581055,7.47411200012207C11.535465320581055,6.867955000122071,11.867212220581054,6.3299595001220705,12.323541220581054,6.2715434601220705C12.782289220581054,6.212211100122071,13.192869220581056,6.65587300012207,13.240779220581054,7.26178500012207L13.240779220581054,7.26178500012207ZM16.149009220581053,7.464202000122071C16.242589220581053,7.29653200012207,16.879669220581054,6.41529200012207,18.198739220581054,6.73612300012207C18.545399220581054,6.8205390001220705,18.705649220581055,6.94462100012207,18.739489220581056,6.99328700012207C18.789319220581056,7.06528700012207,18.803239220581055,7.16786900012207,18.752399220581054,7.30603200012207C18.652149220581055,7.57995200012207,18.445149220581055,7.5724520001220705,18.330569220581054,7.51886200012207C18.256409220581055,7.48436200012207,17.337669220581056,6.87187100012207,16.491169220581057,7.78570200012207C16.432839220581055,7.848282000122071,16.328759220581055,7.869862000122071,16.230169220581054,7.79545200012207C16.131169220581054,7.72053200012207,16.090589220581055,7.569282000122071,16.149009220581053,7.464202000122071Z" fill="#FFFFFF" fill-opacity="1"/></g><g><path d="M14.733952899017334,20.208445231811524L14.696702899017334,20.208445231811524C12.265312899017335,20.237611231811524,9.317252899017333,19.915614231811524,6.462110899017334,19.352702774811522C6.217862999017334,20.767943231811522,6.070447599017334,22.546923231811522,6.196945899017334,24.668243231811523C6.517026899017334,30.03005323181152,9.701332899017334,33.40055323181152,14.616462899017334,33.449253231811525L14.815952899017335,33.449253231811525C19.731362899017334,33.40055323181152,22.915262899017335,30.03005323181152,23.235862899017334,24.668243231811523C23.362362899017334,22.546513231811524,23.214762899017334,20.767943231811522,22.970262899017335,19.352453231811523C20.114862899017332,19.915614231811524,17.166062899017334,20.237862231811523,14.733952899017334,20.208445231811524Z" fill="#FFFFFF" fill-opacity="1"/></g><g><path d="M7.809176921844482,19.7597599029541L7.809176921844482,25.036379902954103Q10.226236921844482,25.523799902954103,12.647966921844482,25.1862099029541L12.647966921844482,20.319170902954102C11.113816921844482,20.2323379029541,9.459326921844482,20.0390079029541,7.809176921844482,19.7597599029541Z" fill="#FFFFFF" fill-opacity="1"/></g><g><path d="M25.671153719711302,14.694700241088867Q20.969353719711304,16.178940241088867,14.734353719711304,16.221020241088866L14.697153719711304,16.221020241088866C8.472413719711303,16.179190241088868,3.7766237197113037,14.699533741088867,3.7606237197113037,14.694700241088867L2.1858537197113037,18.624920241088866C6.124603719711304,19.812410241088866,11.005973719711303,20.577650241088868,14.697153719711304,20.53315024108887L14.734353719711304,20.53315024108887C18.425453719711303,20.577650241088868,23.306653719711303,19.812410241088866,27.245953719711302,18.624920241088866L25.671153719711302,14.694700241088867Z" fill="#FFFFFF" fill-opacity="1"/></g></g></svg>